<svg id="_0185_marketing_1" xmlns="http://www.w3.org/2000/svg" viewBox="0 0 500 500" data-imageid="marketing-1-95" imageName="Marketing 1" class="illustrations_image" style="width: 188px;"><defs><style>.cls-1_marketing-1-95,.cls-2_marketing-1-95{fill:#fff;}.cls-3_marketing-1-95{fill:#f4a28c;}.cls-4_marketing-1-95{fill:#a5a5a5;}.cls-5_marketing-1-95{opacity:.03;}.cls-5_marketing-1-95,.cls-6_marketing-1-95{fill:#000001;}.cls-7_marketing-1-95{fill:#e6e6e6;}.cls-8_marketing-1-95{fill:#ce8172;opacity:.31;}.cls-9_marketing-1-95{opacity:.58;}.cls-9_marketing-1-95,.cls-10_marketing-1-95,.cls-11_marketing-1-95{fill:#68e1fd;}.cls-12_marketing-1-95{fill:#24285b;}.cls-6_marketing-1-95{opacity:.08;}.cls-10_marketing-1-95{opacity:.73;}.cls-2_marketing-1-95{opacity:.85;}.cls-13_marketing-1-95{fill:#ffd200;}</style></defs><ellipse id="sd_marketing-1-95" class="cls-5_marketing-1-95" cx="245.46" cy="425.86" rx="199.36" ry="22.87"/><g id="monitor_marketing-1-95"><rect class="cls-4_marketing-1-95" x="67.84" y="114.32" width="357.15" height="232.06"/><polygon class="cls-4_marketing-1-95" points="219.43 319.87 205.86 406.05 296.34 406.05 275.53 319.87 219.43 319.87"/><rect class="cls-7_marketing-1-95" x="185.22" y="390.95" width="127.24" height="27.7"/><rect class="cls-7_marketing-1-95" x="67.84" y="301.58" width="357.15" height="44.79"/><circle class="cls-4_marketing-1-95" cx="250.28" cy="323.98" r="12.2"/><path class="cls-3_marketing-1-95" d="m236.96,98.27s-.46,9.58,1.39,15.86c.75,2.55,3.47,4.03,6.01,3.24,3.15-.98,7.13-3.22,8-8.32l2.54-8.48s1.41-5.37-4.15-9.05c-5.55-3.68-13.81.89-13.8,6.74Z"/><polygon class="cls-3_marketing-1-95" points="254.45 102.12 260.58 132.94 243.35 135.1 245.81 111.81 254.45 102.12"/><path class="cls-3_marketing-1-95" d="m247.46,106.08s-.07-3.69,2.71-3.51,2.92,5.51-.83,6.15l-1.88-2.64Z"/><path class="cls-3_marketing-1-95" d="m236.98,104.32l-2.53,3.79c-.62.94-.06,2.2,1.05,2.37l3.69.55-2.22-6.71Z"/><path class="cls-6_marketing-1-95" d="m272.19,114.32h24.15s35.11,27.35,46.27,66.89c9.07,32.12,7.39,60.9-5.53,79.77-6.65,9.71-8.75,21.85-6.54,33.41l1.37,7.19h-63.89l4.17-187.26Z"/><path class="cls-3_marketing-1-95" d="m243.34,135.86s-24.53-.04-28.6,19.4c-4.07,19.44-2.32,67.92-18.01,69.83-13.76,1.67-36.47-45.58-41.83-57.2-.84-1.83-2.12-3.42-3.76-4.59-3.86-2.76-11.23-6.99-16.57-3.7-7.55,4.65,11.04,14.53,11.04,14.53,0,0,14.47,118.53,87.13,66.24,72.66-52.29,10.61-104.5,10.61-104.5Z"/><path class="cls-8_marketing-1-95" d="m245.05,116.89s3.17-.77,5.48-3.56c0,0-.03,5.75-6.11,11.66l.64-8.1Z"/><path class="cls-11_marketing-1-95 targetColor" d="m243.35,135.1l17.23-2.16s42.8.83,45.28,47.96c2.48,47.14-11.16,44.66-16.13,85.59h-67.72s2.6-25.43-5.47-42.79c-8.06-17.37-50.59-30.2,26.8-88.59Z" style="fill: rgb(104, 225, 253);"/><rect class="cls-12_marketing-1-95" x="225.73" y="166.56" width="26.94" height="39.54"/><path class="cls-6_marketing-1-95" d="m256.86,143.06s-8.17,19.09,6.69,43.27c14.86,24.19,22.91,37.21-2.98,36.75-25.89-.47-26.38-45.73-26.38-45.73h-19.51l2.33,37.36,12.09,1.86,19.73,39.23,41.95,3.35,15.37-19.32,8.07-33.72-33.03-57.81-24.34-5.23Z"/><path class="cls-3_marketing-1-95" d="m294.02,148.62s27.96,14.3,28.58,73.84c.62,59.54-47.22,42.17-78.19-3.1,0,0-18.62-17.99-10.22-25.43,8.4-7.44,18.02,17.99,18.02,17.99,0,0,30.26,23.22,42.57,18.43,12.31-4.79-65.95-87.96-.77-81.73Z"/><path class="cls-13_marketing-1-95" d="m249.84,99.11s3.75,10.54,2.38,22.79c-1.37,12.26-3.8,31.86,21.08,33.72,24.89,1.86,22.33-10.82,20.23-20.53-2.09-9.71-24.54-10.4-23.03-31.2,1.51-20.79-13.2-24.56-26.09-24.1s-21.13,19.77,5.42,19.3Z"/><polygon class="cls-12_marketing-1-95" points="222.37 253.68 214.69 301.58 299.04 301.58 290.79 259.14 222.37 253.68"/></g><g id="plant_marketing-1-95"><path class="cls-9_marketing-1-95 targetColor" d="m132.34,398.41s-14.99-4.1-18.26-18.05c0,0,23.23-4.7,23.89,19.28l-5.64-1.23Z" style="fill: rgb(104, 225, 253);"/><path class="cls-10_marketing-1-95 targetColor" d="m134.18,396.92s-10.48-16.56-1.26-32.05c0,0,17.67,11.22,9.82,32.08l-8.56-.04Z" style="fill: rgb(104, 225, 253);"/><path class="cls-11_marketing-1-95 targetColor" d="m136.88,396.93s5.54-17.49,22.27-20.8c0,0,3.14,11.36-10.83,20.85l-11.43-.05Z" style="fill: rgb(104, 225, 253);"/><polygon class="cls-12_marketing-1-95" points="126.01 396.54 129.04 417.33 148.19 417.41 151.01 396.64 126.01 396.54"/></g><g id="mail_marketing-1-95"><circle class="cls-12_marketing-1-95" cx="413.07" cy="130.3" r="47.05"/><rect class="cls-1_marketing-1-95" x="389.59" y="111.04" width="50.24" height="37.25"/><polygon class="cls-11_marketing-1-95 targetColor" points="389.59 111.04 414.7 138.11 439.82 111.04 389.59 111.04" style="fill: rgb(104, 225, 253);"/></g><g id="video_marketing-1-95"><circle class="cls-12_marketing-1-95" cx="433" cy="291.53" r="48.18"/><rect class="cls-13_marketing-1-95" x="412.36" y="276.01" width="43.8" height="31.03"/><polygon class="cls-1_marketing-1-95" points="427.35 284.95 427.35 300.99 444.82 292.7 427.35 284.95"/></g><g id="broadcast_marketing-1-95"><circle class="cls-12_marketing-1-95" cx="127.76" cy="98.71" r="47.44"/><circle class="cls-13_marketing-1-95" cx="145.57" cy="96.37" r="6.24"/><rect class="cls-13_marketing-1-95" x="104.47" y="89.05" width="18.56" height="16.33"/><path class="cls-1_marketing-1-95" d="m123.04,89.05s16.24-.74,22.62-16.7v46.41s-7.54-13.38-22.62-13.38v-16.33Z"/><polygon class="cls-13_marketing-1-95" points="113.75 105.38 118.98 121.18 127.59 121.18 123.04 105.38 113.75 105.38"/></g><g id="img_marketing-1-95"><circle class="cls-12_marketing-1-95" cx="70.18" cy="273.08" r="51.36"/><rect class="cls-11_marketing-1-95 targetColor" x="42.17" y="251.55" width="55.39" height="44.03" style="fill: rgb(104, 225, 253);"/><polygon class="cls-2_marketing-1-95" points="42.17 295.58 59.76 265.44 69.87 285 80.53 269.66 97.56 295.58 42.17 295.58"/><circle class="cls-1_marketing-1-95" cx="71.17" cy="264.2" r="4.09"/></g></svg>