<svg width="40" height="40" viewBox="0 0 40 40" fill="none" xmlns="http://www.w3.org/2000/svg">
<path opacity="0.24" d="M35.0992 27.6176C35.0224 27.7224 34.9416 27.8256 34.8608 27.9272C34.8568 27.9328 34.852 27.9376 34.8464 27.9424C34.1064 28.8664 33.232 29.6616 32.2896 30.3816C32.0368 30.5744 31.7832 30.76 31.5224 30.9448C31.1128 31.236 30.6912 31.5168 30.2712 31.7896C29.824 32.0808 29.3672 32.3648 28.9144 32.6464C27.9512 33.2456 26.984 33.8456 25.936 34.2784C23.8168 35.156 21.4752 35.3112 19.184 35.4552C18.2328 35.5184 17.2712 35.576 16.332 35.412C14.7544 35.1416 13.348 34.2664 11.8136 33.8152C10.0416 33.2928 8.05997 33.32 6.37837 32.6424C5.98557 32.488 5.61357 32.2864 5.27037 32.0432C4.43917 31.4544 3.83037 30.6136 3.32397 29.7352C1.85277 27.1872 1.17117 24.148 1.67757 21.2536C2.18397 18.3592 3.93677 15.6512 6.51117 14.212C8.33277 13.1944 10.4944 12.8176 12.196 11.6096C13.5472 10.6504 14.5256 9.26159 16.0368 8.52079C20.6728 6.23999 26.3208 7.64399 29.8576 11.2576C30.4408 11.8544 30.9784 12.504 31.6472 13.004C32.6184 13.7272 33.8208 14.0992 34.7888 14.824C36.4664 16.0784 37.2368 18.2472 37.3336 20.3336C37.4456 22.9408 36.6576 25.5088 35.0992 27.6168V27.6176Z" fill="#68E1FD"/>
<path d="M30.2752 31.7888C29.828 32.08 29.3712 32.364 28.9184 32.6456C27.9552 33.2448 26.988 33.8448 25.94 34.2776C23.8208 35.1552 21.4792 35.3104 19.188 35.4544C18.2368 35.5176 17.2752 35.5752 16.336 35.4112C14.7584 35.1408 13.352 34.2656 11.8176 33.8144C10.0424 33.292 8.06075 33.3192 6.37915 32.6416C6.71595 32.476 7.09035 32.4008 7.46555 32.4216C10.292 32.5832 13.0808 32.2056 15.8856 31.9216C17.42 31.7664 18.9648 31.6456 20.508 31.6784C21.6352 31.704 22.7599 31.8112 23.8839 31.868C26.0103 31.9744 28.1432 31.8928 30.2744 31.788L30.2752 31.7888Z" fill="#68E1FD"/>
<path d="M34.8488 19.068V27.9416C33.9096 29.1128 32.7576 30.0752 31.5248 30.9448L31.1096 30.54H7.18485C5.74085 30.54 4.56885 29.404 4.56885 27.9968V19.068C4.56885 17.664 5.74085 16.524 7.18485 16.524H32.2352C33.6792 16.5224 34.8488 17.6616 34.8488 19.068Z" fill="url(#paint0_linear_325_2)"/>
<path d="M35.1264 18.0256V26.9576C35.1264 27.0768 35.1184 27.196 35.1008 27.3136V27.6192C35.024 27.724 34.9432 27.8272 34.8624 27.9288C34.8584 27.9344 34.8536 27.9392 34.848 27.944C34.108 28.868 33.2336 29.6632 32.2912 30.3832L31.3848 29.5H7.46004C6.01764 29.5 4.84644 28.36 4.84644 26.956V18.0272C4.84644 16.6232 6.01844 15.484 7.46004 15.484H32.5128C33.9552 15.484 35.1264 16.6232 35.1264 18.0272V18.0256Z" fill="#68E1FD"/>
<path d="M35.1264 18.0256V26.9576C35.1264 27.0768 35.1184 27.196 35.1008 27.3136V27.6192C35.024 27.724 34.9432 27.8272 34.8624 27.9288C34.8584 27.9344 34.8536 27.9392 34.848 27.944C34.108 28.868 33.2336 29.6632 32.2912 30.3832L31.3848 29.5H7.46004C6.01764 29.5 4.84644 28.36 4.84644 26.956V18.0272C4.84644 16.6232 6.01844 15.484 7.46004 15.484H32.5128C33.9552 15.484 35.1264 16.6232 35.1264 18.0272V18.0256Z" fill="url(#paint1_linear_325_2)"/>
<g opacity="0.24">
<path d="M13.0464 18.0112C13.0144 18.1168 12.9184 18.44 12.8912 18.5568L12.5712 19.7336C12.5568 19.7856 12.5488 19.8392 12.5496 19.8928C12.5432 19.96 12.5928 20.0192 12.6608 20.0256C12.6704 20.0264 12.68 20.0256 12.6896 20.0256C12.8144 20.0168 12.9336 19.968 13.028 19.8872C13.2904 19.6856 13.4624 19.2936 13.4624 18.8856C13.4736 18.4216 13.24 17.9856 12.8448 17.7352C12.6032 17.592 12.2648 17.5128 11.8856 17.5128C10.7528 17.5128 9.95761 18.2552 9.95761 19.3048C9.95761 20.3544 10.672 20.9912 11.7512 20.9912C12.0296 20.9912 12.3064 20.952 12.5736 20.8744C12.7864 20.8088 12.988 20.7144 13.1744 20.5936L13.5024 21.06C13.212 21.2296 13.084 21.2936 12.8312 21.368C12.4624 21.48 12.0784 21.5368 11.6928 21.5368C10.9352 21.5368 10.3448 21.3248 9.92001 20.9056C9.51761 20.5128 9.29761 19.9504 9.29761 19.336C9.29761 18.6784 9.52321 18.1112 9.95281 17.6808C10.4472 17.1936 11.096 16.9552 11.9288 16.9552C13.18 16.9552 14.072 17.7504 14.072 18.8584C14.0808 19.3344 13.8968 19.7944 13.5608 20.136C13.2968 20.4056 12.936 20.5624 12.5568 20.5712C12.348 20.5712 12.1736 20.492 12.0952 20.3648C12.0664 20.3144 12.0496 20.2576 12.0464 20.2C11.8424 20.4336 11.628 20.5344 11.3264 20.5344C10.7952 20.5344 10.4568 20.1416 10.4568 19.5376C10.4568 18.6416 11.0528 17.8968 11.7672 17.8968C12.068 17.8968 12.2184 17.9712 12.3632 18.1936L12.4168 18.0088L13.0456 18.012L13.0464 18.0112ZM11.94 19.5856C12.0688 19.3312 12.1408 19.0528 12.1512 18.7688C12.1512 18.5512 12.0272 18.4024 11.8392 18.4024C11.6352 18.4024 11.4472 18.5352 11.3128 18.7808C11.1808 19.0264 11.108 19.2984 11.0984 19.576C11.0984 19.8576 11.2056 20.0056 11.4096 20.0056C11.6136 20.0056 11.7984 19.8544 11.9384 19.5848H11.94V19.5856Z" fill="#68E1FD"/>
</g>
<g opacity="0.24">
<path d="M15.7048 20.4784C15.676 20.3328 15.6336 20.1904 15.5768 20.0536L15.3088 19.2896C15.3088 19.276 15.2184 19.0088 15.2104 18.9864C15.1891 18.9176 15.1736 18.8696 15.164 18.8424C15.1816 19.0232 15.1936 19.2584 15.1936 19.4104V20.0336C15.1904 20.1816 15.1984 20.3288 15.2168 20.4752H14.6416C14.6592 20.3288 14.6672 20.1808 14.6648 20.0336V18.5384C14.6656 18.3888 14.6584 18.2392 14.6416 18.0912H15.4088C15.432 18.2296 15.4696 18.3648 15.5192 18.496L15.9552 19.7328L16.3888 18.496C16.4392 18.3656 16.4752 18.2296 16.496 18.0912H17.2632C17.2448 18.24 17.2376 18.3888 17.2392 18.5384V20.0336C17.2352 20.1816 17.2432 20.3288 17.2632 20.4752H16.688C16.7064 20.3288 16.7144 20.1808 16.712 20.0336V19.408C16.712 19.3392 16.72 19.124 16.7264 19.0352C16.7323 18.9339 16.7363 18.8688 16.7384 18.84C16.6744 19.0632 16.6448 19.1672 16.6104 19.2696L16.3288 20.056C16.2744 20.1928 16.2312 20.3344 16.2008 20.4784H15.7064H15.7048Z" fill="#68E1FD"/>
<path d="M19.4584 20.4984C19.2992 20.4824 19.1392 20.4752 18.9792 20.4792H18.0632C17.8424 20.4792 17.7608 20.4792 17.636 20.4872C17.6544 20.3488 17.6624 20.2088 17.6592 20.0688V18.5008C17.6616 18.3608 17.6536 18.2208 17.636 18.0816C17.7552 18.0872 17.8368 18.0904 18.0632 18.0904H18.9912C19.136 18.0928 19.28 18.0856 19.424 18.0704V18.6072C19.28 18.592 19.136 18.5856 18.9912 18.5872H18.2352V19.0096H18.8632C19.0088 19.012 19.1544 19.0048 19.2992 18.9896V19.52C19.1544 19.5048 19.0088 19.4976 18.8632 19.5H18.2352V19.9824H18.984C19.1424 19.9848 19.3 19.9784 19.4576 19.9624V20.5L19.4584 20.4984Z" fill="#68E1FD"/>
<path d="M21.1448 19.264C21.22 19.3744 21.2904 19.488 21.3536 19.6056C21.3424 19.4736 21.336 19.3416 21.336 19.1816V18.5272C21.3384 18.3816 21.3312 18.236 21.3128 18.0912H21.9312C21.9136 18.236 21.9056 18.3816 21.908 18.5272V20.0504C21.9064 20.1936 21.9144 20.336 21.9312 20.4784H21.292C21.228 20.352 21.1552 20.2296 21.0744 20.1136L20.5368 19.3136C20.4624 19.2 20.3944 19.0824 20.3336 18.9608C20.348 19.1024 20.3552 19.2456 20.3544 19.388V20.0304C20.3512 20.18 20.3592 20.3296 20.3776 20.4784H19.7592C19.7784 20.3288 19.7864 20.1784 19.7824 20.028V18.5184C19.784 18.376 19.7768 18.2328 19.7592 18.0912H20.3896C20.4456 18.2176 20.5144 18.3376 20.596 18.4496L21.1456 19.264H21.1448Z" fill="#68E1FD"/>
<path d="M23.5368 20.0448C23.5344 20.1896 23.5424 20.3344 23.5608 20.4784H22.9184C22.936 20.3344 22.944 20.1896 22.9416 20.0448V18.5992H22.5992C22.4528 18.5976 22.3056 18.604 22.16 18.6192V18.0704C22.304 18.0848 22.4488 18.0912 22.5936 18.0904H23.8664C24.0176 18.0928 24.1688 18.0856 24.32 18.0704V18.6192C24.1696 18.6032 24.0184 18.5968 23.8664 18.5992H23.5376V20.0448H23.5368Z" fill="#68E1FD"/>
<path d="M25.1831 18.0912C25.1639 18.232 25.1567 18.3736 25.1599 18.516V20.0544C25.1567 20.196 25.1647 20.3384 25.1831 20.4792H24.5439C24.5623 20.3384 24.5703 20.1968 24.5671 20.0544V18.516C24.5711 18.3744 24.5631 18.232 24.5439 18.0912H25.1831Z" fill="#68E1FD"/>
<path d="M27.8168 19.2728C27.8168 20.0304 27.3488 20.5352 26.6424 20.5352C25.936 20.5352 25.4712 20.0448 25.4712 19.284C25.4712 18.5232 25.9304 18.0416 26.6448 18.0416C27.3592 18.0416 27.8168 18.5216 27.8168 19.2728ZM27.212 19.2792C27.212 18.8144 26.9976 18.5336 26.6448 18.5336C26.292 18.5336 26.0728 18.8176 26.0728 19.2792C26.0728 19.7408 26.2904 20.0368 26.6448 20.0368C26.9992 20.0368 27.212 19.7504 27.212 19.2792Z" fill="#68E1FD"/>
<path d="M29.4968 19.264C29.5808 19.3904 29.636 19.4792 29.7064 19.6056C29.6944 19.4736 29.6888 19.3416 29.6888 19.1816V18.5272C29.6912 18.3816 29.684 18.236 29.6656 18.0912H30.284C30.2664 18.236 30.2584 18.3816 30.2608 18.5272V20.0504C30.26 20.1936 30.2672 20.336 30.284 20.4784H29.648C29.584 20.352 29.5112 20.2304 29.4304 20.1136L28.892 19.3136C28.8152 19.2 28.7456 19.0824 28.6832 18.9608C28.6976 19.1024 28.7048 19.2456 28.704 19.388V20.0304C28.7008 20.18 28.7088 20.3296 28.7272 20.4784H28.1088C28.128 20.3288 28.136 20.1784 28.132 20.028V18.5184C28.1336 18.376 28.1264 18.2328 28.1088 18.0912H28.7392C28.7952 18.2176 28.864 18.3376 28.9456 18.4496L29.4976 19.264H29.4968Z" fill="#68E1FD"/>
</g>
<path opacity="0.24" d="M10.392 22.8192H30.468C30.7744 22.8192 31.0232 23.064 31.0232 23.3664C31.0232 23.6688 30.7744 23.9136 30.468 23.9136H10.392C10.0856 23.9136 9.83679 23.6688 9.83679 23.3664C9.83679 23.064 10.0856 22.8192 10.392 22.8192Z" fill="#68E1FD"/>
<path opacity="0.24" d="M10.392 25.5568H30.468C30.7744 25.5568 31.0232 25.8016 31.0232 26.104C31.0232 26.4064 30.7744 26.6512 30.468 26.6512H10.392C10.0856 26.6512 9.83679 26.4064 9.83679 26.104C9.83679 25.8016 10.0856 25.5568 10.392 25.5568Z" fill="#68E1FD"/>
<path d="M21.5592 21.8232C21.5608 22.3712 21.532 22.9192 21.472 23.464C21.4208 24.016 21.372 24.5704 21.3208 25.1224C21.2792 25.58 21.2384 26.0368 21.1288 26.4816C21.0192 26.9264 20.8592 27.3432 20.7552 27.7832C20.6288 28.3056 20.592 28.8456 20.6448 29.38C20.6512 29.42 20.6488 29.4608 20.6392 29.5008H17.8008C17.7368 28.2672 17.6784 27.0112 18.0088 25.8232C18.2008 25.1288 18.5272 24.4536 18.5544 23.732C18.576 23.172 18.416 22.596 18.588 22.0592C18.6064 21.992 18.64 21.9288 18.6864 21.876C18.7568 21.8136 18.8472 21.7768 18.9424 21.7728C19.2392 21.7544 19.5296 21.8664 19.7344 22.08C19.936 22.2936 20.0728 22.5584 20.1304 22.844C20.1664 23 20.1944 23.1744 20.3256 23.2704C20.5696 22.9552 20.5696 22.5216 20.5952 22.1248C20.636 21.5144 20.7648 20.9136 20.9784 20.3392C21.1816 19.7968 21.384 20.3624 21.4336 20.6272C21.508 21.0216 21.5504 21.4208 21.5592 21.8216V21.8232Z" fill="url(#paint2_linear_325_2)"/>
<path d="M17.6449 31.6592L17.6721 34.6912L18.0529 34.7184L18.3521 31.7128L17.6449 31.6592Z" fill="#FFB4A3"/>
<path d="M19.1665 31.6592L19.1945 34.6912L19.5745 34.7184L19.8737 31.7128L19.1665 31.6592Z" fill="#FFB4A3"/>
<path d="M20.3123 26.968C20.2483 27.2472 20.1843 29.0448 19.7891 29.0056C19.4227 28.968 18.1083 29.2136 17.9995 29.064C17.9619 29.0152 17.6979 28.7936 17.4539 28.58C17.3155 28.4576 17.1843 28.3392 17.1059 28.256C16.8915 28.0304 16.8755 27.6776 16.9419 27.3728C17.0083 27.068 17.1427 26.7792 17.1819 26.4704C17.2627 25.8344 17.0435 24.8504 17.4771 24.288C17.6107 24.1152 17.7987 23.9904 18.0107 23.9328C18.6531 23.736 19.9491 24.0864 20.2707 24.6776C20.6659 25.4112 20.4923 26.2008 20.3131 26.9696L20.3123 26.968Z" fill="#68E1FD"/>
<path d="M17.5097 28.5464L20.1049 28.6048C20.1049 28.6048 20.2145 29.2672 20.1601 29.6576C20.1057 30.048 20.0785 30.9464 20.0785 30.9464L19.9289 31.7856L17.5105 31.8328C17.5105 31.8328 17.4833 29.2288 17.5105 28.5456L17.5097 28.5464Z" fill="#231F20"/>
<path d="M17.5097 28.5464L20.1049 28.6048C20.1049 28.6048 20.2145 29.2672 20.1601 29.6576C20.1057 30.048 20.0785 30.9464 20.0785 30.9464L19.9289 31.7856L17.5105 31.8328C17.5105 31.8328 17.4833 29.2288 17.5105 28.5456L17.5097 28.5464Z" fill="url(#paint3_linear_325_2)"/>
<path d="M17.7816 34.4976C17.7504 34.496 17.7192 34.5032 17.6912 34.5184C17.6528 34.5504 17.636 34.6016 17.6472 34.6504C17.6552 34.6992 17.6752 34.7448 17.6808 34.7936C17.6864 34.8424 17.6808 34.8848 17.7128 34.9144C17.736 34.932 17.764 34.9416 17.7928 34.9416C17.8488 34.9472 17.9048 34.9512 17.9608 34.952C17.9824 34.9544 18.0048 34.9504 18.0248 34.9416C18.0688 34.9184 18.0688 34.8576 18.068 34.8088C18.0664 34.76 18.12 34.5376 18.0944 34.5032C18.052 34.4488 17.8448 34.4928 17.7816 34.496V34.4976Z" fill="#68E1FD"/>
<path d="M19.3033 34.4976C19.2721 34.496 19.2409 34.5032 19.2129 34.5184C19.1745 34.5504 19.1577 34.6016 19.1697 34.6504C19.1769 34.6992 19.1969 34.7448 19.2033 34.7936C19.2089 34.8424 19.2033 34.8848 19.2353 34.9144C19.2585 34.932 19.2865 34.9416 19.3153 34.9416C19.3713 34.9472 19.4273 34.9512 19.4833 34.952C19.5049 34.9544 19.5273 34.9504 19.5473 34.9416C19.5913 34.9184 19.5913 34.8576 19.5905 34.8088C19.5897 34.76 19.6425 34.5376 19.6169 34.5032C19.5745 34.4488 19.3673 34.4928 19.3041 34.496L19.3033 34.4976Z" fill="#68E1FD"/>
<path d="M17.8401 34.8832C17.7833 34.868 17.7225 34.876 17.6705 34.9048C17.6609 34.9128 17.6513 34.92 17.6401 34.9264C17.6265 34.9304 17.6121 34.9328 17.5977 34.9328C17.5361 34.944 17.4865 34.9888 17.4697 35.0488C17.4537 35.1088 17.4577 35.172 17.4801 35.2296C17.4873 35.256 17.5017 35.28 17.5217 35.2992C17.5409 35.3128 17.5625 35.3224 17.5857 35.328C17.6825 35.3512 17.7809 35.3648 17.8801 35.3704C17.9409 35.3816 18.0041 35.3704 18.0569 35.3384C18.1057 35.2872 18.1313 35.2192 18.1265 35.1488C18.1337 35.0952 18.1321 35.0416 18.1217 34.9888C18.0777 34.828 17.9609 34.9008 17.8401 34.8848V34.8832Z" fill="#231F20"/>
<path d="M19.3592 34.8832C19.3016 34.868 19.2408 34.876 19.1888 34.9048C19.1792 34.9128 19.1696 34.92 19.1584 34.9264C19.1448 34.9304 19.1312 34.9328 19.1168 34.9328C19.0536 34.9432 19.0032 34.988 18.9856 35.0488C18.9696 35.1088 18.9736 35.172 18.9968 35.2296C19.004 35.256 19.0184 35.28 19.0384 35.2992C19.0576 35.3128 19.0792 35.3232 19.1024 35.328C19.1984 35.3512 19.2968 35.3648 19.396 35.3704C19.4568 35.3816 19.52 35.3704 19.5728 35.3384C19.6216 35.2872 19.6472 35.2192 19.6424 35.1488C19.6496 35.0952 19.648 35.0416 19.6376 34.9888C19.596 34.828 19.48 34.9008 19.3592 34.8848V34.8832Z" fill="#231F20"/>
<path d="M20.4209 20.224H20.5929C20.6489 20.0904 20.6713 19.9448 20.6569 19.8008C20.6457 19.692 20.6353 19.5448 20.7409 19.5096C20.7833 19.4992 20.8281 19.5024 20.8689 19.5184C21.0569 19.5744 21.2489 19.668 21.3417 19.8384C21.4353 20.0088 21.4057 20.2352 21.3753 20.436C21.3689 20.5328 21.3313 20.6256 21.2689 20.7008C20.9137 21.0424 20.5289 20.4856 20.4217 20.2248L20.4209 20.224Z" fill="#FFB4A3"/>
<path d="M20.2896 26.0464C20.672 25.4656 20.9456 24.8216 21.096 24.1456C21.3232 23.1192 21.2624 22.0512 21.4096 21.0112C21.4288 20.928 21.4272 20.8408 21.4048 20.7584C21.332 20.564 21.0696 20.536 20.86 20.5408C20.792 20.5368 20.724 20.5496 20.6616 20.5776C20.5584 20.636 20.5248 20.7672 20.504 20.8816C20.3584 21.7112 20.3408 22.5664 20.108 23.3768C20.0248 23.668 19.9128 23.9576 19.9056 24.26C19.908 24.4648 19.9344 24.6688 19.984 24.8672C20.048 25.1768 20.1232 25.504 20.3448 25.7328" fill="#68E1FD"/>
<path d="M18.8889 21.7712C19.2745 21.8392 19.5897 22.1136 19.7049 22.4832C19.8001 22.8032 19.7313 23.1456 19.7497 23.4784C19.7657 23.7504 19.8409 24.0152 19.9697 24.256C20.0569 24.3968 20.1369 24.5416 20.2081 24.6912C20.3761 25.1344 20.2289 25.6344 19.8449 25.9192C19.6617 26.0488 19.4425 26.116 19.2417 26.216C18.9809 26.3456 18.7505 26.5288 18.5673 26.7528C18.2697 26.7592 18.0561 26.4584 18.0049 26.168C17.9537 25.8784 18.0161 25.5808 17.9841 25.2896C17.9281 24.7848 17.5969 24.28 17.7721 23.7984C17.8481 23.5904 18.0169 23.4064 18.0097 23.1848C17.9969 22.8032 17.6001 22.5792 17.8481 22.1752C18.0361 21.8744 18.5561 21.7192 18.8889 21.7712Z" fill="#231F20"/>
<path d="M18.8889 21.7712C19.2745 21.8392 19.5897 22.1136 19.7049 22.4832C19.8001 22.8032 19.7313 23.1456 19.7497 23.4784C19.7657 23.7504 19.8409 24.0152 19.9697 24.256C20.0569 24.3968 20.1369 24.5416 20.2081 24.6912C20.3761 25.1344 20.2289 25.6344 19.8449 25.9192C19.6617 26.0488 19.4425 26.116 19.2417 26.216C18.9809 26.3456 18.7505 26.5288 18.5673 26.7528C18.2697 26.7592 18.0561 26.4584 18.0049 26.168C17.9537 25.8784 18.0161 25.5808 17.9841 25.2896C17.9281 24.7848 17.5969 24.28 17.7721 23.7984C17.8481 23.5904 18.0169 23.4064 18.0097 23.1848C17.9969 22.8032 17.6001 22.5792 17.8481 22.1752C18.0361 21.8744 18.5561 21.7192 18.8889 21.7712Z" fill="url(#paint4_linear_325_2)"/>
<path d="M17.6761 25.7392L17.5097 28.5472C17.5097 28.5472 17.4881 28.5608 17.4505 28.58C17.3121 28.4576 17.1809 28.3392 17.1025 28.256C16.8881 28.0304 16.8721 27.6776 16.9385 27.3728C17.0057 27.0672 17.1393 26.7792 17.1785 26.4704C17.2593 25.8344 17.0401 24.8504 17.4737 24.288C17.5665 24.392 17.7009 25.3472 17.6753 25.74L17.6761 25.7392Z" fill="url(#paint5_linear_325_2)"/>
<path d="M30.468 10.4312V13.1952C30.468 13.9736 29.8288 14.6048 29.04 14.6048H21.7048L20.5608 16.6872L19.2184 14.6048H12.2648C11.476 14.6048 10.8368 13.9736 10.8368 13.1952V10.4312C10.8368 9.652 11.476 9.02 12.2648 9.0192H29.04C29.8288 9.0192 30.468 9.652 30.468 10.4312Z" fill="#68E1FD"/>
<path d="M14.2368 13.8752C15.4416 13.8752 16.4184 12.9106 16.4184 11.7208C16.4184 10.5309 15.4416 9.56639 14.2368 9.56639C13.0319 9.56639 12.0552 10.5309 12.0552 11.7208C12.0552 12.9106 13.0319 13.8752 14.2368 13.8752Z" fill="url(#paint6_linear_325_2)"/>
<path d="M18.3832 10.2976H28.06C28.4096 10.2976 28.6936 10.5776 28.6936 10.9232V10.9864C28.6936 11.332 28.4096 11.612 28.06 11.612H18.3832C18.0336 11.612 17.7496 11.332 17.7496 10.9864V10.9232C17.7496 10.5776 18.0336 10.2976 18.3832 10.2976Z" fill="url(#paint7_linear_325_2)"/>
<path d="M18.184 12.552H28.0928C28.2464 12.552 28.3704 12.6744 28.3704 12.8256C28.3704 12.9768 28.2464 13.0992 28.0928 13.0992H18.184C18.0304 13.0992 17.9064 12.9768 17.9064 12.8256C17.9064 12.6744 18.0304 12.552 18.184 12.552Z" fill="url(#paint8_linear_325_2)"/>
<defs>
<linearGradient id="paint0_linear_325_2" x1="19.8656" y1="13.5256" x2="19.4464" y2="40.1232" gradientUnits="userSpaceOnUse">
<stop stop-color="#231F20" stop-opacity="0"/>
<stop offset="1" stop-color="#231F20"/>
</linearGradient>
<linearGradient id="paint1_linear_325_2" x1="19.5064" y1="39.8112" x2="19.9712" y2="23.0328" gradientUnits="userSpaceOnUse">
<stop stop-color="white" stop-opacity="0"/>
<stop offset="0.14" stop-color="white" stop-opacity="0.22"/>
<stop offset="0.3" stop-color="white" stop-opacity="0.45"/>
<stop offset="0.45" stop-color="white" stop-opacity="0.65"/>
<stop offset="0.6" stop-color="white" stop-opacity="0.8"/>
<stop offset="0.73" stop-color="white" stop-opacity="0.91"/>
<stop offset="0.85" stop-color="white" stop-opacity="0.98"/>
<stop offset="0.94" stop-color="white"/>
</linearGradient>
<linearGradient id="paint2_linear_325_2" x1="19.7104" y1="33.0592" x2="19.4952" y2="1.4576" gradientUnits="userSpaceOnUse">
<stop stop-color="#231F20" stop-opacity="0"/>
<stop offset="1" stop-color="#231F20"/>
</linearGradient>
<linearGradient id="paint3_linear_325_2" x1="17.9505" y1="30.8768" x2="21.3657" y2="27.7184" gradientUnits="userSpaceOnUse">
<stop stop-color="#231F20" stop-opacity="0"/>
<stop offset="1" stop-color="#231F20"/>
</linearGradient>
<linearGradient id="paint4_linear_325_2" x1="17.7217" y1="24.2568" x2="20.2769" y2="24.2568" gradientUnits="userSpaceOnUse">
<stop stop-color="#231F20" stop-opacity="0"/>
<stop offset="1" stop-color="#231F20"/>
</linearGradient>
<linearGradient id="paint5_linear_325_2" x1="17.0305" y1="26.2936" x2="21.3825" y2="27.7016" gradientUnits="userSpaceOnUse">
<stop stop-color="#231F20" stop-opacity="0"/>
<stop offset="1" stop-color="#231F20"/>
</linearGradient>
<linearGradient id="paint6_linear_325_2" x1="14.0816" y1="2.06079" x2="14.6296" y2="36.1208" gradientUnits="userSpaceOnUse">
<stop stop-color="white" stop-opacity="0"/>
<stop offset="0.07" stop-color="white" stop-opacity="0.22"/>
<stop offset="0.16" stop-color="white" stop-opacity="0.45"/>
<stop offset="0.25" stop-color="white" stop-opacity="0.65"/>
<stop offset="0.33" stop-color="white" stop-opacity="0.8"/>
<stop offset="0.4" stop-color="white" stop-opacity="0.91"/>
<stop offset="0.46" stop-color="white" stop-opacity="0.98"/>
<stop offset="0.51" stop-color="white"/>
</linearGradient>
<linearGradient id="paint7_linear_325_2" x1="23.076" y1="1.9064" x2="23.6248" y2="36.0104" gradientUnits="userSpaceOnUse">
<stop stop-color="white" stop-opacity="0"/>
<stop offset="0.07" stop-color="white" stop-opacity="0.22"/>
<stop offset="0.16" stop-color="white" stop-opacity="0.45"/>
<stop offset="0.25" stop-color="white" stop-opacity="0.65"/>
<stop offset="0.33" stop-color="white" stop-opacity="0.8"/>
<stop offset="0.4" stop-color="white" stop-opacity="0.91"/>
<stop offset="0.46" stop-color="white" stop-opacity="0.98"/>
<stop offset="0.51" stop-color="white"/>
</linearGradient>
<linearGradient id="paint8_linear_325_2" x1="22.9624" y1="1.88879" x2="23.512" y2="36.0456" gradientUnits="userSpaceOnUse">
<stop stop-color="white" stop-opacity="0"/>
<stop offset="0.07" stop-color="white" stop-opacity="0.22"/>
<stop offset="0.16" stop-color="white" stop-opacity="0.45"/>
<stop offset="0.25" stop-color="white" stop-opacity="0.65"/>
<stop offset="0.33" stop-color="white" stop-opacity="0.8"/>
<stop offset="0.4" stop-color="white" stop-opacity="0.91"/>
<stop offset="0.46" stop-color="white" stop-opacity="0.98"/>
<stop offset="0.51" stop-color="white"/>
</linearGradient>
</defs>
</svg>
